<svg height="393pt" viewBox="-1 0 393 393.1478" width="393pt" xmlns="http://www.w3.org/2000/svg"><path d="m370.675781 57.027344c15.621094 15.621094 15.621094 40.949218 0 56.570312l-21.421875 21.421875-91.410156-92.410156 20.921875-20.921875c15.621094-15.621094 40.949219-15.621094 56.570313 0zm0 0" fill="#00acea"/><path d="m257.84375 42.609375 91.410156 92.410156-215.667968 215.667969-1.761719-1.757812-88.390625-88.390626-1.757813-1.761718zm0 0" fill="#00efd1"/><path d="m131.824219 348.929688-121.75 34.21875 33.359375-122.609376zm0 0" fill="#fedb41"/><path d="m342.402344 14.617188c-19.539063-19.488282-51.167969-19.488282-70.707032 0l-237.089843 237.089843c-2.890625 2.890625-3.730469 7.246094-2.125 11l-32.054688 117.816407c-.945312 3.472656.050781 7.1875 2.605469 9.726562 2.558594 2.535156 6.28125 3.5 9.75 2.523438l116.9375-32.867188c3.742188 1.574219 8.066406.726562 10.9375-2.148438l237.089844-237.089843c19.492187-19.539063 19.492187-51.171875 0-70.710938zm-84.597656 42.171874 77.34375 78.191407-201.5625 201.566406-77.769532-77.769531zm-209.25 223.015626 64.121093 64.117187-88.320312 24.824219zm315.050781-173.277344-14.3125 14.308594-77.34375-78.1875 13.886719-13.890626c11.722656-11.691406 30.699218-11.691406 42.425781 0l35.339843 35.339844c11.699219 11.726563 11.699219 30.707032.003907 42.429688zm0 0" fill="#083863"/></svg>